<svg id="Icon_Set" enable-background="new 0 0 256 256" height="512" viewBox="0 0 256 256" width="512" xmlns="http://www.w3.org/2000/svg"><path d="m147.773 205.851h-114.749c-13.807 0-25-11.193-25-25v-147.469c0-13.807 11.193-25 25-25h114.748c13.807 0 25 11.193 25 25v147.469c.001 13.807-11.192 25-24.999 25z" fill="#5fcdff"/><path d="m129.44 149.216v27.634h-78.083v-27.634c0-10.606 4.229-20.223 11.106-27.248 3.521-3.636 7.798-6.529 11.834-8.31 1.523-.693 3.092-1.296 4.706-1.785 3.603-1.103 7.423-1.694 11.39-1.694s7.787.591 11.39 1.694c1.626.5 3.194 1.103 4.718 1.785 4.877 2.221 9.19 5.39 12.698 9.208 6.354 6.946 10.241 16.199 10.241 26.35z" fill="#ff4a73"/><path d="m113.374 247.455c-3.224.864-6.174-2.086-5.31-5.31 2.964-11.063 5.192-19.375 7.991-29.822l13.571 13.571 13.571 13.571c-.711.189-30.454 8.159-29.823 7.99z" fill="#87828e"/><path d="m242.04 113.479c7.495 7.495 7.495 19.646 0 27.141l-6.229 6.229-27.141-27.141 6.229-6.229c7.494-7.495 19.646-7.495 27.141 0z" fill="#87828e"/><path d="m172.773 33.385v147.47c0 13.8-11.19 25-25 25h-15c13.81 0 25-11.2 25-25v-147.47c0-13.81-11.19-25-25-25h15c13.81 0 25 11.19 25 25z" fill="#30b6ff"/><path d="m48.023 205.855h-15c-13.81 0-25-11.2-25-25v-147.47c0-13.81 11.19-25 25-25h15c-13.81 0-25 11.19-25 25v147.47c0 13.8 11.19 25 25 25z" fill="#73d7f9"/><path d="m129.443 149.215v27.64h-15v-27.64c0-10.15-3.89-19.4-10.24-26.35-2.925-3.151-6.129-5.639-9.35-7.48-1.08-.62-2.2-1.2-3.35-1.73-1.53-.68-3.09-1.28-4.72-1.78-1.27-.39-2.57-.71-3.89-.97 2.42-.47 4.93-.72 7.5-.72 3.97 0 7.79.59 11.39 1.69 1.63.5 3.19 1.1 4.72 1.78 4.735 2.182 8.921 5.14 12.7 9.21 6.35 6.95 10.24 16.2 10.24 26.35z" fill="#ea2a6a"/><path d="m97.893 110.905c-1.32.26-2.62.58-3.89.97-1.61.49-3.18 1.09-4.71 1.78-.77.34-1.52.72-2.26 1.12-3.473 1.845-6.685 4.222-9.57 7.19-6.88 7.03-11.11 16.65-11.11 27.25v27.64h-15v-27.64c0-10.6 4.23-20.22 11.11-27.25 3.63-3.734 7.912-6.58 11.83-8.31 1.53-.69 3.1-1.29 4.71-1.78 3.6-1.1 7.42-1.69 11.39-1.69 2.57 0 5.08.25 7.5.72z" fill="#f973a3"/><path d="m106.501 113.659-5.354 9.276-10.754 18.62-10.742-18.62-5.354-9.276c1.523-.693 3.092-1.296 4.706-1.785 3.603-1.103 7.423-1.694 11.39-1.694s7.787.591 11.39 1.694c1.626.5 3.194 1.103 4.718 1.785z" fill="#ffbb98"/><path d="m97.053 130.025-6.66 11.53-10.74-18.62-5.36-9.28c1.53-.69 3.1-1.29 4.71-1.78 2.17-.66 4.43-1.14 6.75-1.42l4.9 8.48z" fill="#ffcaa6"/><circle cx="90.397" cy="84.163" fill="#ffbb98" r="29.475"/><path d="m119.873 84.165c0 16.28-13.2 29.47-29.48 29.47-2.59 0-5.1-.33-7.49-.97 12.64-3.31 21.97-14.81 21.97-28.5s-9.33-25.19-21.97-28.51c2.39-.64 4.9-.97 7.49-.97 16.28 0 29.48 13.2 29.48 29.48z" fill="#ffaa80"/><path d="m97.903 112.665c-2.4.63-4.92.97-7.51.97-16.27 0-29.47-13.19-29.47-29.47s13.2-29.48 29.47-29.48c2.59 0 5.11.34 7.51.97-12.65 3.31-21.98 14.82-21.98 28.51s9.33 25.19 21.98 28.5z" fill="#ffcaa6"/><path d="m51.357 76.419v3.729h7.366c5.127 0 9.867-2.99 12.436-7.855l4.126-7.855 4.138 7.855c1.285 2.433 3.115 4.399 5.263 5.752 2.137 1.353 4.615 2.103 7.173 2.103h37.581v-3.729c0-21.11-16.756-38.297-37.683-39.013-.443-.023-.898-.023-1.353-.023s-.909 0-1.353.023c-10.242.352-19.484 4.638-26.259 11.413-7.07 7.058-11.435 16.812-11.435 27.6z" fill="#87828e"/><path d="m129.443 76.415v3.73h-15v-3.73c0-19-13.58-34.82-31.55-38.31 2-.39 4.06-.63 6.16-.7.44-.02.9-.02 1.35-.02.46 0 .91 0 1.35.02 20.93.72 37.69 17.9 37.69 39.01z" fill="#796e84"/><path d="m97.893 38.105c-7.77 1.51-14.72 5.33-20.1 10.71-7.07 7.06-11.44 16.82-11.44 27.6v1.32c-2.25 1.55-4.88 2.41-7.63 2.41h-7.37v-3.73c0-10.78 4.37-20.54 11.44-27.6 6.77-6.77 16.02-11.06 26.26-11.41.44-.02.9-.02 1.35-.02.46 0 .91 0 1.35.02 2.09.07 4.14.31 6.14.7z" fill="#a4a4a5"/><path d="m225.513 123.855-6.23 6.23 16.65 16.65-.12.11-27.14-27.14 6.23-6.23c7.49-7.49 19.64-7.49 27.14 0 1.8 1.81 3.17 3.88 4.1 6.1-6.89-2.73-15.06-1.3-20.63 4.28z" fill="#a4a4a5"/><path d="m126.663 222.935c-5.713 21.356-4.639 17.351-6.05 22.58l-7.24 1.94c-3.22.86-6.17-2.09-5.31-5.31 3.713-13.869 1.825-6.824 7.99-29.82z" fill="#a4a4a5"/><path d="m235.813 146.845-92.62 92.62-16.53-16.53-10.61-10.61 92.62-92.62 10.61 10.61z" fill="#ff4a73"/><path d="m118.71 180.359h130.984v14.991h-130.984z" fill="#ea2a6a" transform="matrix(.707 -.707 .707 .707 -78.882 185.272)"/><path d="m102.175 163.817h130.984v15.005h-130.984z" fill="#f973a3" transform="matrix(.707 -.707 .707 .707 -72.033 168.737)"/><g fill="#5f266d"><path d="m31.733 58.765c0-5.16 0-4.053 0-9.16 0-5.281-8-5.294-8 0v9.16c0 5.302 8 5.276 8 0z"/><path d="m33.763 37.695c1.88-2.44 4.72-3.84 7.8-3.84h15.34c5.285 0 5.293-8 0-8h-15.34c-5.58 0-10.72 2.54-14.13 6.95-3.268 4.235 3.187 9 6.33 4.89z"/><path d="m47.353 76.415v3.73c0 2.21 1.8 4 4 4h5.57v.02c0 11.01 5.34 20.79 13.57 26.9-3.931 2.144-7.311 4.413-10.89 8.11-7.9 8.06-12.25 18.73-12.25 30.04v27.64c0 2.2 1.8 4 4 4h78.09c2.21 0 4-1.8 4-4v-27.64c0-10.77-4.01-21.09-11.3-29.05-2.883-3.226-6.969-6.527-11.84-9.1 8.23-6.11 13.57-15.89 13.57-26.9 0-.01 0-.01 0-.02h5.57c2.21 0 4-1.79 4-4v-3.73c0-25.11-20.949-44.069-44.53-43.01-22.945.797-41.56 19.561-41.56 43.01zm78.09-.27c-17.792 0 23.142 0-33.58 0-3.808 0-7.129-2.349-8.9-5.72l-4.14-7.85c-1.4-2.799-5.556-2.894-7.08 0l-4.12 7.85c-1.24 2.35-3.16 4.1-5.38 5.01-2.011.834-3.099.71-6.88.71.123-18.983 15.267-34.116 33.89-34.74 18.694-.982 36.038 14.236 36.19 34.74zm-9.57 8.02c0 14.137-11.539 25.47-25.48 25.47-13.94 0-25.47-11.329-25.47-25.47 0-.4.01-.8.03-1.19 4.06-1.58 7.56-4.67 9.75-8.82l.59-1.13.59 1.14c3.287 6.202 9.387 9.98 15.98 9.98h24.01zm.37 41.4c5.93 6.48 9.2 14.88 9.2 23.65v23.64h-70.09v-23.64c0-9.2 3.54-17.88 9.98-24.46 2.162-2.232 4.683-4.215 7.41-5.8l14.19 24.6c1.524 2.661 5.394 2.666 6.92 0l14.2-24.59c2.834 1.635 5.716 3.908 8.19 6.6zm-25.85-7.93c3.52 0 6.91-.55 10.1-1.56l-10.1 17.48-10.09-17.48c3.18 1.02 6.57 1.56 10.09 1.56z"/><path d="m212.073 110.655c-9.528 9.528-24.195 24.189-35.3 35.29v-112.56c0-15.99-13.01-29-29-29h-114.75c-15.99 0-29 13.01-29 29v147.47c0 15.99 13.01 29 29 29h79.88c-.09.12-.18.24-.25.36-.25.376-.437.921-.53 1.34l-7.92 29.55c-1.679 6.287 4.093 11.885 10.21 10.21l29.82-7.99c.01 0 .02-.01.02-.01.616-.154 1.238-.488 1.77-1.02 4.401-4.401 95.429-95.429 98.85-98.85 21.667-21.668-11.135-54.479-32.8-32.79zm-100.15 132.53 6.2-23.13 17.34 17.34-23.12 6.2c-.295.042-.464-.148-.42-.41zm-99.9-209.8c0-11.58 9.42-21 21-21h114.75c11.58 0 21 9.42 21 21v120.56l-47.91 47.91h-87.84c-11.58 0-21-9.42-21-21zm196.65 91.98 7.91 7.91c-48.681 48.693-14.619 14.619-86.96 86.96l-7.91-7.91c4.621-4.622 82.244-82.244 86.96-86.96zm-65.48 108.44-7.91-7.91 86.96-86.96 7.91 7.91zm92.62-92.61c-7.938-7.938-13.548-13.549-21.49-21.49l3.4-3.4c14.209-14.185 35.682 7.274 21.49 21.49z"/></g></svg>